{"title":"Rogue River 2012 DvDRip XviD Ac3 Feel-Free","uid":7012908,"size":993984019,"categoryP":"video","categoryS":"movies","magnet":"?xt=urn:btih:191e384e7ac2b346505b34caf1e41dc99e4bde34&amp;dn=Rogue+River+2012+DvDRip+XviD+Ac3+Feel-Free&amp;tr=udp%3A%2F%2Ftracker.openbittorrent.com%3A80&amp;tr=udp%3A%2F%2Fopen.demonii.com%3A1337&amp;tr=udp%3A%2F%2Ftracker.coppersurfer.tk%3A6969&amp;tr=udp%3A%2F%2Fexodus.desync.com%3A6969","seeders":0,"leechers":0,"uploader":"just4funak69","files":9,"time":1328536404,"description":"Genre:Horror | Thriller\nLanguage:English\nIMDb:http://www.imdb.com/title/tt1560978/\nSource:DVD Thanks!\nEncoder:Tony\n\nFormat : AVI\nFormat/Info : Audio Video Interleave\nFile size : 947 MiB\nDuration : 1h 17mn\nOverall bit rate : 1 705 Kbps\n\nVideo\nID : 0\nFormat : MPEG-4 Visual\nFormat profile : Advanced Simple@L5\nFormat settings, BVOP : 1\nFormat settings, QPel : No\nFormat settings, GMC : No warppoints\nFormat settings, Matrix : Default (H.263)\nCodec ID : XVID\nCodec ID/Hint : XviD\nDuration : 1h 17mn\nBit rate : 1 248 Kbps\nWidth : 640 pixels\nHeight : 360 pixels\nDisplay aspect ratio : 16:9\nFrame rate : 25.000 fps\nColor space : YUV\nChroma subsampling : 4:2:0\nBit depth : 8 bits\nScan type : Progressive\nCompression mode : Lossy\nBits/(Pixel*Frame) : 0.217\nStream size : 693 MiB (73%)\nWriting library : XviD 1.2.1 (UTC 2008-12-04)\n\nAudio\nID : 1\nFormat : AC-3\nFormat/Info : Audio Coding 3\nMode extension : CM (complete main)\nCodec ID : 2000\nDuration : 1h 17mn\nBit rate mode : Constant\nBit rate : 448 Kbps\nChannel(s) : 6 channels\nChannel positions : Front: L C R, Side: L R, LFE\nSampling rate : 48.0 KHz\nBit depth : 16 bits\nCompression mode : Lossy\nStream size : 249 MiB (26%)\nAlignment : Aligned on interleaves\nInterleave, duration : 40 ms (1.00 video frame)\nInterleave, preload duration : 512 ms\n\n","torrent":{"xt":"urn:btih:191e384e7ac2b346505b34caf1e41dc99e4bde34","amp;dn":"Rogue+River+2012+DvDRip+XviD+Ac3+Feel-Free","amp;tr":["udp%3A%2F%2Ftracker.openbittorrent.com%3A80","udp%3A%2F%2Fopen.demonii.com%3A1337","udp%3A%2F%2Ftracker.coppersurfer.tk%3A6969","udp%3A%2F%2Fexodus.desync.com%3A6969"],"infoHash":"191e384e7ac2b346505b34caf1e41dc99e4bde34","infoHashBuffer":{"type":"Buffer","data":[25,30,56,78,122,194,179,70,80,91,52,202,241,228,29,201,158,75,222,52]},"announce":[],"urlList":[]}}